<svg xmlns="http://www.w3.org/2000/svg" xmlns:xlink="http://www.w3.org/1999/xlink" width="1080" zoomAndPan="magnify" viewBox="0 0 810 809.999993" height="1080" preserveAspectRatio="xMidYMid meet" version="1.0"><defs><clipPath id="b96ce550a3"><path d="M 215.8125 679 L 593.8125 679 L 593.8125 746 L 215.8125 746 Z M 215.8125 679 " clip-rule="nonzero"/></clipPath><clipPath id="3367524c57"><path d="M 215.8125 458 L 593.8125 458 L 593.8125 698 L 215.8125 698 Z M 215.8125 458 " clip-rule="nonzero"/></clipPath><clipPath id="d9494e7e83"><path d="M 215.8125 81 L 593.8125 81 L 593.8125 359 L 215.8125 359 Z M 215.8125 81 " clip-rule="nonzero"/></clipPath><clipPath id="37afae6e1b"><path d="M 215.8125 238 L 593.8125 238 L 593.8125 574 L 215.8125 574 Z M 215.8125 238 " clip-rule="nonzero"/></clipPath><clipPath id="6504fb1279"><path d="M 497 448 L 593.8125 448 L 593.8125 698 L 497 698 Z M 497 448 " clip-rule="nonzero"/></clipPath><clipPath id="cf689c6123"><path d="M 454 70 L 593.8125 70 L 593.8125 259 L 454 259 Z M 454 70 " clip-rule="nonzero"/></clipPath><clipPath id="2bf2eddefa"><path d="M 497 238 L 593.8125 238 L 593.8125 514 L 497 514 Z M 497 238 " clip-rule="nonzero"/></clipPath></defs><g clip-path="url(#b96ce550a3)"><path fill="#dddddd" d="M 215.859375 679.945312 L 215.859375 697.136719 L 244.03125 735.222656 C 248.898438 741.804688 256.589844 745.679688 264.765625 745.679688 L 544.910156 745.679688 C 553.085938 745.679688 560.777344 741.792969 565.644531 735.222656 L 593.8125 697.136719 L 593.8125 679.945312 Z M 215.859375 679.945312 " fill-opacity="1" fill-rule="nonzero"/></g><g clip-path="url(#3367524c57)"><path fill="#ffeb76" d="M 215.859375 539.042969 L 215.859375 697.136719 L 593.8125 697.136719 L 593.8125 458.992188 Z M 215.859375 539.042969 " fill-opacity="1" fill-rule="nonzero"/></g><g clip-path="url(#d9494e7e83)"><path fill="#ffeb76" d="M 593.8125 147.457031 L 561.183594 90.121094 L 561.183594 81.675781 L 248.480469 81.675781 L 248.480469 90.121094 L 215.859375 147.457031 L 215.859375 358.558594 L 593.8125 278.503906 Z M 593.8125 147.457031 " fill-opacity="1" fill-rule="nonzero"/></g><g clip-path="url(#37afae6e1b)"><path fill="#ffffff" d="M 593.8125 238.476562 L 215.859375 318.53125 L 215.859375 573.359375 L 593.8125 493.292969 Z M 593.8125 238.476562 " fill-opacity="1" fill-rule="nonzero"/></g><g clip-path="url(#6504fb1279)"><path fill="#dbc767" d="M 497.828125 697.136719 L 593.8125 697.136719 L 593.8125 448.824219 L 497.828125 469.15625 Z M 497.828125 697.136719 " fill-opacity="1" fill-rule="nonzero"/></g><g clip-path="url(#cf689c6123)"><path fill="#dbc767" d="M 561.183594 90.121094 L 561.183594 81.675781 L 508.617188 81.675781 L 502.066406 70.324219 L 454.765625 78.675781 L 497.828125 151.433594 L 497.828125 258.8125 L 593.8125 238.476562 L 593.8125 147.457031 Z M 561.183594 90.121094 " fill-opacity="1" fill-rule="nonzero"/></g><path fill="#dddddd" d="M 237.605469 64.589844 L 572.066406 64.589844 L 572.066406 82.605469 L 237.605469 82.605469 Z M 237.605469 64.589844 " fill-opacity="1" fill-rule="nonzero"/><g clip-path="url(#2bf2eddefa)"><path fill="#dddddd" d="M 497.828125 513.628906 L 593.8125 493.292969 L 593.8125 238.476562 L 497.828125 258.8125 Z M 497.828125 513.628906 " fill-opacity="1" fill-rule="nonzero"/></g></svg>