<svg xmlns="http://www.w3.org/2000/svg" xmlns:xlink="http://www.w3.org/1999/xlink" width="1080" zoomAndPan="magnify" viewBox="0 0 810 809.999993" height="1080" preserveAspectRatio="xMidYMid meet" version="1.0"><path fill="#efbc3d" d="M 809.929688 405 C 809.929688 628.644531 628.644531 809.929688 405 809.929688 C 181.355469 809.929688 0.0703125 628.644531 0.0703125 405 C 0.0546875 181.355469 181.355469 0.0703125 405 0.0703125 C 628.644531 0.0546875 809.929688 181.355469 809.929688 405 " fill-opacity="1" fill-rule="nonzero"/><path fill="#faf5a3" d="M 739.285156 405 C 739.285156 560.464844 633.144531 691.144531 489.394531 728.535156 C 462.429688 735.535156 434.144531 739.285156 405 739.285156 C 373 739.285156 342.035156 734.785156 312.75 726.394531 C 173 686.355469 70.714844 557.605469 70.714844 405 C 70.714844 333.820312 93 267.785156 130.964844 213.570312 C 167.179688 161.75 217.714844 120.714844 276.855469 96.179688 C 316.320312 79.785156 359.605469 70.714844 405 70.714844 C 446.355469 70.714844 485.929688 78.214844 522.5 91.964844 C 582.714844 114.570312 634.679688 154.070312 672.605469 204.679688 C 714.464844 260.535156 739.285156 329.855469 739.285156 405 " fill-opacity="1" fill-rule="nonzero"/><path fill="#ef3638" d="M 306.894531 165.285156 C 306.894531 217.535156 264.570312 259.894531 212.320312 259.894531 C 177.714844 259.894531 147.464844 241.320312 130.964844 213.570312 C 167.179688 161.75 217.714844 120.714844 276.855469 96.179688 C 295.355469 113.429688 306.894531 138 306.894531 165.285156 " fill-opacity="1" fill-rule="nonzero"/><path fill="#ef3638" d="M 672.605469 204.679688 C 656.285156 233 625.714844 252.070312 590.679688 252.070312 C 538.429688 252.070312 496.070312 209.714844 496.070312 157.5 C 496.070312 132.035156 506.105469 108.964844 522.5 91.964844 C 582.714844 114.570312 634.679688 154.070312 672.605469 204.679688 " fill-opacity="1" fill-rule="nonzero"/><path fill="#ef3638" d="M 296.179688 490.679688 C 296.179688 542.894531 253.820312 585.25 201.605469 585.25 C 149.355469 585.25 107 542.894531 107 490.679688 C 107 438.429688 149.355469 396.070312 201.605469 396.070312 C 253.820312 396.070312 296.179688 438.429688 296.179688 490.679688 " fill-opacity="1" fill-rule="nonzero"/><path fill="#ef3638" d="M 496.070312 332.25 C 496.070312 384.5 453.714844 426.820312 401.464844 426.820312 C 349.25 426.820312 306.894531 384.5 306.894531 332.25 C 306.894531 280.035156 349.25 237.679688 401.464844 237.679688 C 453.714844 237.679688 496.070312 280.035156 496.070312 332.25 " fill-opacity="1" fill-rule="nonzero"/><path fill="#ef3638" d="M 692.285156 467.464844 C 692.285156 519.679688 649.929688 562.035156 597.679688 562.035156 C 545.464844 562.035156 503.105469 519.679688 503.105469 467.464844 C 503.105469 415.214844 545.464844 372.855469 597.679688 372.855469 C 649.929688 372.855469 692.285156 415.214844 692.285156 467.464844 " fill-opacity="1" fill-rule="nonzero"/><path fill="#ef3638" d="M 496.070312 693.605469 C 496.070312 705.929688 493.714844 717.75 489.394531 728.535156 C 462.429688 735.535156 434.144531 739.285156 405 739.285156 C 373 739.285156 342.035156 734.785156 312.75 726.394531 C 308.964844 716.179688 306.894531 705.144531 306.894531 693.605469 C 306.894531 641.355469 349.25 599.035156 401.5 599.035156 C 453.714844 599.035156 496.070312 641.355469 496.070312 693.605469 " fill-opacity="1" fill-rule="nonzero"/><path fill="#7dcd52" d="M 201.605469 342.179688 C 187.320312 357.179688 163.605469 357.785156 148.570312 343.535156 C 133.570312 329.25 132.964844 305.535156 147.25 290.5 L 201.605469 342.179688 " fill-opacity="1" fill-rule="nonzero"/><path fill="#7dcd52" d="M 362.105469 166.394531 C 376.394531 181.394531 400.105469 182 415.144531 167.714844 C 430.144531 153.429688 430.75 129.714844 416.464844 114.714844 L 362.105469 166.394531 " fill-opacity="1" fill-rule="nonzero"/><path fill="#7dcd52" d="M 556.035156 300.429688 C 559.179688 320.894531 578.320312 334.964844 598.785156 331.820312 C 619.25 328.679688 633.320312 309.535156 630.144531 289.070312 L 556.035156 300.429688 " fill-opacity="1" fill-rule="nonzero"/><path fill="#7dcd52" d="M 387.894531 467.464844 C 369.429688 476.785156 361.964844 499.320312 371.285156 517.820312 C 380.605469 536.285156 403.179688 543.75 421.644531 534.429688 L 387.894531 467.464844 " fill-opacity="1" fill-rule="nonzero"/><path fill="#7dcd52" d="M 233.929688 612.320312 C 243.394531 630.75 266 638.035156 284.429688 628.570312 C 302.855469 619.144531 310.144531 596.535156 300.679688 578.105469 L 233.929688 612.320312 " fill-opacity="1" fill-rule="nonzero"/><path fill="#7dcd52" d="M 536.644531 593 C 523.070312 608.644531 524.785156 632.320312 540.429688 645.894531 C 556.070312 659.464844 579.75 657.75 593.320312 642.105469 L 536.644531 593 " fill-opacity="1" fill-rule="nonzero"/></svg>